<!DOCTYPE svg PUBLIC "-//W3C//DTD SVG 1.1//EN" "http://www.w3.org/Graphics/SVG/1.1/DTD/svg11.dtd">
<!-- Uploaded to: SVG Repo, www.svgrepo.com, Transformed by: SVG Repo Mixer Tools -->
<svg fill="#000000" version="1.1" id="Ebene_1" xmlns="http://www.w3.org/2000/svg" xmlns:xlink="http://www.w3.org/1999/xlink" width="256px" height="256px" viewBox="-6.4 -6.4 76.80 76.80" enable-background="new 0 0 64 64" xml:space="preserve" transform="rotate(0)matrix(-1, 0, 0, 1, 0, 0)">
<g id="SVGRepo_bgCarrier" stroke-width="0"/>
<g id="SVGRepo_tracerCarrier" stroke-linecap="round" stroke-linejoin="round" stroke="#CCCCCC" stroke-width="0.384"/>
<g id="SVGRepo_iconCarrier"> <g> <path d="M62,16H45v-6c0-1.104-0.896-2-2-2H21c-1.104,0-2,0.896-2,2v6H2c-1.104,0-2,0.896-2,2v36c0,1.104,0.896,2,2,2h60 c1.104,0,2-0.896,2-2V18C64,16.896,63.104,16,62,16z M23,12h18v4H23V12z M60,52H4V20h56V52z"/> </g> </g>
</svg>